<?xml version="1.0" standalone="no"?>
<!DOCTYPE svg PUBLIC "-//W3C//DTD SVG 20010904//EN"
 "http://www.w3.org/TR/2001/REC-SVG-20010904/DTD/svg10.dtd">
<svg version="1.0" xmlns="http://www.w3.org/2000/svg"
 width="651.000000pt" height="651.000000pt" viewBox="0 0 651.000000 651.000000"
 preserveAspectRatio="xMidYMid meet">
<metadata>
Created by potrace 1.11, written by Peter Selinger 2001-2013
</metadata>
<g transform="translate(0.000000,651.000000) scale(0.100000,-0.100000)"
fill="#000000" stroke="none">
<path d="M2485 6405 c-172 -85 -761 -375 -1330 -656 -121 -59 -254 -127 -295
-149 -146 -80 -287 -150 -304 -150 -23 0 -109 -44 -126 -65 -10 -13 -13 -47
-11 -143 1 -70 6 -143 10 -162 8 -40 -110 31 1084 -652 l807 -462 0 -171 0
-172 -25 -13 c-23 -12 -40 -4 -267 125 -375 213 -562 321 -1354 778 -208 120
-279 157 -305 157 -22 -1 -78 -24 -154 -63 -97 -50 -122 -67 -130 -90 -6 -20
0 -198 23 -580 18 -304 50 -858 72 -1232 22 -374 44 -689 49 -700 14 -33 202
-155 239 -155 17 0 34 5 38 12 4 7 3 8 -4 4 -8 -5 -10 -2 -6 8 4 10 1 16 -7
16 -10 0 -11 2 -2 8 9 5 9 26 3 77 -5 39 -12 115 -15 170 -4 55 -8 116 -10
135 -2 19 -6 91 -9 160 -3 68 -8 147 -11 175 -5 53 -13 236 -20 425 -2 63 -6
160 -9 215 -3 55 -8 145 -11 200 -12 239 -17 312 -25 342 -5 22 -4 33 3 37 7
3 6 5 -2 5 -11 1 -10 5 5 17 18 14 18 15 -6 9 -20 -5 -22 -4 -8 5 12 7 24 6
47 -7 17 -10 31 -22 31 -26 0 -5 4 -6 9 -3 11 7 17 -66 36 -434 45 -866 70
-1474 61 -1495 -12 -32 -66 -62 869 490 132 78 347 206 479 283 131 78 243
142 248 142 5 0 39 -16 74 -36 l64 -36 0 -101 -1 -102 -617 -370 c-339 -203
-618 -373 -620 -377 -2 -5 -8 -8 -12 -8 -5 0 -48 -24 -97 -54 -48 -29 -111
-65 -140 -79 -28 -15 -61 -39 -73 -54 -21 -27 -22 -34 -15 -148 5 -92 11 -124
23 -137 14 -13 661 -460 1267 -873 72 -49 155 -106 185 -127 30 -21 114 -78
185 -126 72 -49 150 -102 174 -120 24 -18 48 -32 53 -32 5 0 6 71 3 163 -5
157 -13 1281 -16 2223 -1 254 1 466 4 471 8 13 118 79 147 88 l23 7 -7 -543
c-4 -299 -9 -647 -12 -774 -3 -126 -7 -376 -9 -555 -2 -179 -5 -325 -6 -325
-3 0 -8 -172 -15 -502 -4 -190 -3 -283 4 -283 12 0 174 109 223 149 l34 29 7
353 c4 195 12 660 18 1034 l10 680 30 25 c16 14 51 37 77 51 l48 26 188 -117
c103 -64 192 -121 198 -127 10 -10 10 -47 -27 -1335 -15 -508 -15 -570 -1
-591 8 -13 65 -58 127 -100 90 -62 119 -77 148 -77 25 0 32 3 23 9 -9 6 -10
11 -2 15 7 4 11 106 11 304 1 163 3 344 5 402 1 58 5 213 9 345 3 132 8 281
11 330 7 121 14 391 20 790 6 348 21 730 30 745 3 5 -3 13 -12 19 -17 10 -16
11 2 8 11 -1 35 -10 54 -20 19 -9 39 -17 44 -17 13 0 111 62 115 72 2 5 8 8
12 8 5 0 49 25 97 55 48 30 151 93 228 140 77 47 183 113 235 146 52 33 103
62 113 66 9 3 17 9 17 14 0 5 5 9 10 9 6 0 23 8 38 18 15 11 46 31 70 45 23
15 59 38 80 51 20 13 80 50 132 82 52 32 111 69 130 82 19 13 42 21 51 19 10
-3 16 0 13 7 -4 12 248 175 299 192 9 4 17 11 17 16 0 5 10 6 23 3 14 -4 17
-3 9 3 -9 6 -5 12 15 23 28 14 90 52 108 67 55 42 117 73 136 67 18 -6 21 -4
16 9 -4 10 -1 16 8 16 8 0 15 4 15 8 0 13 68 47 76 39 10 -10 44 12 44 28 0
16 38 40 48 31 3 -3 -1 -6 -8 -6 -7 0 -11 -3 -7 -6 8 -8 117 54 117 67 0 5 7
9 15 9 8 0 15 5 15 11 0 5 -6 7 -12 3 -9 -5 -9 -2 1 9 15 19 46 24 35 6 -4 -7
1 -7 16 1 18 10 20 14 9 22 -10 7 -8 8 9 5 17 -4 22 -2 18 8 -6 17 14 32 23
17 4 -7 13 -6 25 4 11 8 14 14 8 14 -9 0 -8 7 3 24 16 23 13 70 -5 81 -7 4
-371 -216 -1605 -973 -823 -505 -919 -562 -929 -559 -14 5 35 37 429 279 193
118 523 322 735 453 212 131 484 298 605 372 121 75 253 158 292 187 67 47 73
54 73 87 0 43 -23 68 -99 102 l-53 25 38 24 c22 13 83 51 137 84 74 44 93 60
77 62 -21 3 -110 -48 -800 -468 -618 -375 -1113 -671 -1119 -668 -27 12 -167
93 -171 99 -3 4 -4 48 -2 98 l3 91 517 309 c284 169 735 438 1002 596 267 159
495 299 507 312 12 14 24 41 27 61 9 63 18 232 13 232 -3 0 -12 -6 -19 -12
-15 -14 -40 -28 -163 -91 -44 -23 -85 -46 -91 -52 -6 -5 -28 -19 -50 -30 -21
-11 -41 -22 -44 -26 -4 -4 -60 -36 -145 -83 -11 -7 -39 -24 -62 -39 -24 -15
-47 -27 -52 -27 -5 0 -11 -3 -13 -7 -1 -5 -18 -16 -35 -25 -68 -37 -97 -53
-107 -61 -28 -20 -84 -53 -111 -67 -16 -8 -60 -33 -96 -57 -37 -24 -71 -43
-76 -43 -7 0 -98 -54 -129 -77 -10 -8 -37 -23 -106 -60 -18 -10 -34 -21 -36
-25 -2 -5 -8 -8 -14 -8 -6 0 -30 -13 -55 -30 -24 -16 -46 -30 -48 -30 -9 0
-151 -85 -157 -94 -4 -6 -8 -7 -8 -2 0 5 -8 3 -17 -5 -10 -8 -29 -20 -43 -28
-14 -8 -60 -36 -103 -63 -43 -26 -80 -48 -82 -48 -3 0 -72 -40 -156 -90 -83
-49 -153 -90 -155 -90 -2 0 -30 -18 -62 -39 -31 -21 -75 -49 -97 -62 -125 -70
-153 -89 -159 -105 -3 -8 -10 -13 -15 -10 -12 8 -68 -21 -75 -39 -3 -8 -12
-15 -20 -15 -8 0 -17 -4 -20 -9 -3 -5 0 -9 7 -8 35 1 52 -4 39 -11 -18 -12 -4
-42 22 -43 51 -3 59 -5 63 -16 3 -7 -4 -10 -19 -6 -18 4 -20 3 -8 -6 13 -9 13
-11 -2 -11 -9 0 -18 5 -20 12 -7 21 -41 0 -35 -23 4 -16 -7 -28 -61 -63 -81
-51 -103 -61 -95 -40 4 10 0 12 -11 8 -12 -5 -16 0 -16 20 0 27 15 35 23 14 3
-7 6 2 6 20 1 17 6 32 11 32 6 0 10 5 10 10 0 21 -20 9 -26 -15 -10 -42 -17
-20 -21 71 -4 80 -3 86 16 91 12 3 21 9 21 14 0 5 4 9 9 9 7 0 223 119 317
175 104 63 128 75 140 75 8 0 14 5 14 11 0 6 7 9 15 5 8 -3 15 -1 15 4 0 6 10
10 23 10 13 0 17 3 10 8 -8 5 -2 13 18 24 30 18 38 12 17 -11 -10 -11 -8 -10
10 0 12 8 22 21 22 30 0 9 7 20 16 23 22 8 26 8 19 -4 -3 -5 1 -10 10 -10 11
0 15 5 12 14 -3 8 1 20 10 28 13 10 17 10 20 1 7 -20 23 -15 23 6 0 21 22 33
44 25 7 -3 30 5 50 16 37 23 51 39 17 20 -27 -14 -36 -13 -22 4 14 17 51 28
51 15 0 -5 9 -4 20 3 12 8 15 15 8 19 -17 10 29 31 55 25 12 -3 16 -3 10 0
-24 11 -13 23 25 30 47 8 74 22 67 34 -3 5 3 14 14 19 14 8 21 8 24 -2 3 -6 6
-3 6 8 1 22 44 47 67 38 8 -3 26 3 42 13 15 11 34 22 42 26 11 5 9 7 -7 7 -13
1 -23 -2 -23 -6 0 -5 -12 -14 -28 -20 l-27 -12 30 24 c29 24 45 29 73 26 7 -1
11 4 10 11 -2 8 6 12 20 11 13 -2 21 1 18 6 -4 5 2 7 12 4 10 -2 24 3 31 11 8
9 20 16 27 16 8 0 14 5 14 11 0 5 -4 7 -10 4 -6 -3 -10 -1 -10 5 0 6 10 10 23
9 24 -3 157 63 138 69 -19 6 -12 17 22 34 79 40 77 40 70 21 -6 -16 -5 -16 10
-4 9 7 14 18 11 23 -4 6 2 8 14 4 16 -5 21 -2 24 15 2 12 9 24 16 27 8 2 10
-2 5 -13 -6 -16 -4 -16 21 0 21 14 24 20 14 27 -9 6 -5 8 12 6 32 -3 73 19 64
34 -5 8 -1 9 10 5 23 -9 43 2 25 14 -7 4 -10 11 -6 15 3 4 14 1 22 -6 13 -11
19 -10 33 4 16 16 16 17 -3 11 -18 -6 -18 -5 -2 5 9 6 21 8 27 5 14 -9 60 24
54 39 -3 8 2 16 10 19 9 4 16 2 16 -3 0 -14 13 -12 36 5 18 13 18 14 -6 8 -33
-8 -27 -3 52 45 36 23 75 40 85 39 28 -2 83 23 83 38 0 19 42 53 47 38 3 -7 9
-13 15 -13 6 0 8 6 5 14 -4 9 0 12 12 9 10 -2 24 2 32 9 8 8 34 25 59 39 30
17 44 31 42 42 -3 20 24 23 31 5 4 -8 8 -6 12 7 4 11 18 28 32 39 21 15 27 16
34 5 7 -11 9 -10 9 4 0 14 5 17 23 13 12 -3 16 -3 10 0 -7 3 -13 10 -13 15 0
13 57 40 73 33 8 -3 18 -1 22 5 3 7 0 8 -10 5 -11 -5 -14 -2 -9 9 4 11 -6 22
-33 35 l-38 20 -130 -75 c-866 -499 -2498 -1435 -2511 -1440 -8 -3 -14 1 -14
10 0 9 -48 43 -112 81 -144 84 -180 108 -153 104 18 -3 20 3 22 47 1 50 9 110
17 131 2 6 -11 18 -30 27 -19 9 -34 21 -34 26 0 9 115 -47 231 -114 l56 -33
274 159 c151 87 635 365 1076 616 441 252 799 461 795 465 -8 8 -741 363
-1112 540 -69 32 -286 139 -484 236 l-358 177 -17 -22 c-16 -19 -18 -59 -24
-350 -17 -920 -40 -1709 -50 -1721 -6 -8 -33 -25 -59 -38 l-49 -25 -189 102
c-105 56 -188 104 -186 108 2 3 7 292 10 641 3 349 9 775 12 945 3 171 1 315
-3 322 -6 8 -227 -98 -733 -349 -1007 -500 -1151 -569 -1169 -565 -9 2 135 79
319 171 184 93 394 199 465 236 72 37 344 174 605 305 l475 237 -95 49 c-52
26 -106 48 -120 48 -14 0 -110 -43 -215 -94z m150 -355 c-3 -5 -40 -27 -81
-47 -130 -66 -140 -72 -121 -73 16 0 26 -20 10 -20 -5 0 -9 -12 -9 -26 -2 -28
-10 -41 -20 -31 -4 4 -1 13 6 21 10 13 9 18 -3 31 -18 17 -52 21 -42 4 4 -6 1
-10 -6 -8 -8 1 -21 1 -29 0 -12 -1 -12 -3 -2 -10 10 -6 2 -11 -25 -16 -21 -3
-45 -12 -53 -19 -8 -6 -49 -27 -90 -46 -41 -19 -77 -37 -80 -40 -10 -10 -115
-60 -127 -60 -6 0 -13 -3 -15 -8 -3 -8 -209 -110 -218 -108 -3 0 -16 -9 -30
-21 -22 -21 -40 -29 -40 -18 0 2 28 23 63 46 34 24 64 46 65 51 2 4 7 8 11 8
5 0 147 68 317 151 250 123 505 244 522 248 2 1 0 -3 -3 -9z m-221 -61 c-21
-9 -41 -16 -43 -13 -2 2 -2 5 0 7 41 24 65 34 72 30 5 -3 -8 -14 -29 -24z
m-59 -18 c3 -5 2 -12 -3 -15 -5 -3 -9 1 -9 9 0 17 3 19 12 6z m-65 -35 c0 -2
-17 -14 -37 -25 l-38 -22 28 26 c25 22 47 32 47 21z m197 -2 c-3 -3 -12 -4
-19 -1 -8 3 -5 6 6 6 11 1 17 -2 13 -5z m-292 -56 c-9 -6 -19 -7 -22 -4 -4 3
-1 6 6 6 7 0 9 4 6 10 -4 6 1 7 11 3 15 -6 15 -7 -1 -15z m-40 -18 c-3 -5 -11
-10 -16 -10 -6 0 -7 5 -4 10 3 6 11 10 16 10 6 0 7 -4 4 -10z m161 -21 c8 -14
-10 -11 -32 6 -18 13 -18 14 4 8 12 -3 25 -9 28 -14z m201 -1 c-3 -8 -6 -5 -6
6 -1 11 2 17 5 13 3 -3 4 -12 1 -19z m-397 2 c0 -5 -9 -10 -21 -10 -11 0 -17
5 -14 10 3 6 13 10 21 10 8 0 14 -4 14 -10z m155 -10 c3 -5 1 -10 -4 -10 -6 0
-11 5 -11 10 0 6 2 10 4 10 3 0 8 -4 11 -10z m-205 -10 c0 -5 -2 -10 -4 -10
-3 0 -8 5 -11 10 -3 6 -1 10 4 10 6 0 11 -4 11 -10z m438 -10 c7 -18 9 -19 36
-5 39 21 45 11 7 -11 -17 -10 -31 -22 -31 -27 0 -4 -4 -5 -10 -2 -5 3 -10 0
-10 -8 0 -18 -30 -31 -42 -19 -5 5 -5 19 1 33 5 13 12 32 15 42 7 23 25 22 34
-3z m-468 -10 c-8 -5 -19 -10 -25 -10 -5 0 -3 5 5 10 8 5 20 10 25 10 6 0 3
-5 -5 -10z m546 -15 c-11 -8 -25 -15 -30 -15 -6 1 0 7 14 15 32 19 40 18 16 0z
m-128 -67 c13 -3 12 -5 -6 -10 -12 -3 -20 -2 -16 3 3 5 1 9 -3 9 -5 0 -7 17
-4 38 l6 37 3 -37 c2 -25 9 -38 20 -40z m238 -140 c-2 -117 -5 -305 -5 -418
-1 -166 -4 -201 -14 -185 -9 15 -13 124 -15 403 -3 362 -3 384 15 397 10 8 19
15 21 15 1 0 0 -96 -2 -212z m-536 198 c0 -3 -4 -8 -10 -11 -5 -3 -10 -1 -10
4 0 6 5 11 10 11 6 0 10 -2 10 -4z m466 -443 c-6 -424 -14 -633 -25 -633 -4 0
-7 49 -7 109 0 61 2 108 5 106 3 -2 5 47 3 108 -7 347 -6 657 3 657 6 0 3 5
-5 10 -13 9 -13 10 0 11 11 0 12 2 2 6 -10 4 -9 8 5 19 10 7 20 14 22 14 2 0
1 -183 -3 -407z m-746 387 c-8 -5 -19 -10 -25 -10 -5 0 -3 5 5 10 8 5 20 10
25 10 6 0 3 -5 -5 -10z m529 -14 c9 -10 9 -16 1 -21 -6 -4 -14 -4 -17 -1 -4 3
0 6 7 6 9 0 7 5 -6 15 -10 8 -14 15 -8 15 6 0 17 -6 23 -14z m1418 -6 c-1 -11
-6 -20 -12 -20 -5 0 -4 -4 4 -9 13 -8 13 -63 3 -403 -7 -216 -16 -442 -20
-503 -6 -104 -7 -107 -13 -50 -10 106 4 920 17 983 6 27 23 29 21 2z m-1992 0
c-3 -5 -11 -10 -16 -10 -6 0 -7 5 -4 10 3 6 11 10 16 10 6 0 7 -4 4 -10z m523
-35 c-3 -3 -9 2 -12 12 -6 14 -5 15 5 6 7 -7 10 -15 7 -18z m-658 -35 c-24
-15 -37 -11 -16 5 11 8 22 12 25 9 3 -3 -1 -9 -9 -14z m947 -2 c-3 -8 -6 -5
-6 6 -1 11 2 17 5 13 3 -3 4 -12 1 -19z m-1001 -23 c-11 -8 -25 -15 -30 -15
-6 1 0 7 14 15 32 19 40 18 16 0z m1001 -42 c-3 -10 -5 -2 -5 17 0 19 2 27 5
18 2 -10 2 -26 0 -35z m-877 27 c0 -5 -5 -10 -11 -10 -5 0 -7 5 -4 10 3 6 8
10 11 10 2 0 4 -4 4 -10z m2678 -156 c185 -91 372 -181 415 -201 43 -20 76
-41 74 -47 -3 -10 -245 -150 -667 -389 l-205 -115 -3 34 c-2 20 4 214 12 432
9 218 16 409 16 425 0 15 5 27 10 27 6 0 162 -75 348 -166z m-2851 150 c-3 -3
-12 -4 -19 -1 -8 3 -5 6 6 6 11 1 17 -2 13 -5z m723 -399 c0 -217 -3 -395 -6
-395 -12 0 -754 404 -754 410 0 8 732 380 748 380 9 0 12 -86 12 -395z m-776
370 c-4 -8 -12 -15 -20 -15 -17 0 -18 17 -1 23 22 9 27 7 21 -8z m101 -15 c-3
-5 -11 -10 -16 -10 -6 0 -7 5 -4 10 3 6 11 10 16 10 6 0 7 -4 4 -10z m-150
-10 c-3 -5 -11 -10 -16 -10 -6 0 -7 5 -4 10 3 6 11 10 16 10 6 0 7 -4 4 -10z
m110 -10 c-3 -5 -12 -10 -18 -10 -7 0 -6 4 3 10 19 12 23 12 15 0z m52 -6 c-3
-3 -12 -4 -19 -1 -8 3 -5 6 6 6 11 1 17 -2 13 -5z m-222 -17 c-26 -18 -207
-107 -217 -107 -4 0 -5 7 -2 15 3 8 21 17 40 21 19 3 34 10 34 15 0 5 5 9 11
9 6 0 23 9 39 20 15 11 30 17 33 14 3 -4 13 1 22 10 9 9 26 16 38 16 21 0 21
0 2 -13z m262 7 c-3 -3 -12 -4 -19 -1 -8 3 -5 6 6 6 11 1 17 -2 13 -5z m103
-8 c0 -3 -4 -8 -10 -11 -5 -3 -10 -1 -10 4 0 6 5 11 10 11 6 0 10 -2 10 -4z
m-250 -31 c9 -11 16 -13 24 -5 14 14 26 12 26 -5 0 -9 -9 -15 -24 -15 -13 0
-27 -6 -30 -12 -3 -7 -3 -3 0 9 3 14 -1 25 -13 32 -10 6 -13 11 -7 11 6 0 17
-7 24 -15z m-20 -15 c0 -11 -26 -31 -32 -24 -11 11 4 43 18 37 8 -3 14 -9 14
-13z m-75 -21 c-4 -6 0 -9 11 -7 13 2 20 -4 22 -20 3 -17 8 -22 19 -18 9 4 21
-1 29 -11 12 -17 13 -16 14 5 0 13 4 20 10 17 15 -9 12 -19 -11 -44 -13 -14
-18 -26 -12 -34 16 -21 15 -67 -1 -61 -8 3 -17 1 -21 -5 -3 -6 -11 -11 -17
-11 -7 0 -2 9 11 21 l22 21 -23 26 c-33 38 -41 43 -50 29 -13 -19 -29 13 -17
34 6 12 5 20 -2 25 -16 10 -27 -13 -21 -44 4 -25 3 -26 -12 -11 -13 12 -15 21
-7 42 6 15 15 27 21 27 6 0 9 4 6 9 -4 5 0 12 6 14 22 9 29 7 23 -4z m1192
-51 c-3 -7 -5 -2 -5 12 0 14 2 19 5 13 2 -7 2 -19 0 -25z m-1017 0 c0 -16 -3
-19 -11 -11 -6 6 -8 16 -5 22 11 17 16 13 16 -11z m-30 -42 c0 -2 -7 -7 -16
-10 -8 -3 -12 -2 -9 4 6 10 25 14 25 6z m-122 -29 c19 -25 8 -54 -13 -37 -9 7
-18 10 -22 7 -8 -9 -46 20 -49 36 -3 21 68 16 84 -6z m167 5 c-3 -3 -11 0 -18
7 -9 10 -8 11 6 5 10 -3 15 -9 12 -12z m-44 -30 c-7 -2 -18 1 -23 6 -8 8 -4 9
13 5 13 -4 18 -8 10 -11z m1046 -14 c-3 -8 -6 -5 -6 6 -1 11 2 17 5 13 3 -3 4
-12 1 -19z m2953 -152 c0 -3 -4 -8 -10 -11 -5 -3 -10 -1 -10 4 0 6 5 11 10 11
6 0 10 -2 10 -4z m-435 -256 c-3 -5 -12 -10 -18 -10 -7 0 -6 4 3 10 19 12 23
12 15 0z m-301 -175 c-4 -8 -11 -15 -16 -15 -6 0 -5 6 2 15 7 8 14 15 16 15 2
0 1 -7 -2 -15z m-2222 -67 c-6 -6 -7 0 -4 19 5 21 7 23 10 9 2 -10 0 -22 -6
-28z m2083 -18 c-3 -5 -11 -10 -16 -10 -6 0 -7 5 -4 10 3 6 11 10 16 10 6 0 7
-4 4 -10z m-1749 -202 c24 -12 44 -26 44 -31 0 -7 -79 32 -99 49 -13 11 17 1
55 -18z m3240 -103 c-11 -8 -22 -12 -25 -9 -6 6 19 24 34 24 6 -1 1 -7 -9 -15z
m-2606 -499 c0 -3 -4 -8 -10 -11 -5 -3 -10 -1 -10 4 0 6 5 11 10 11 6 0 10 -2
10 -4z m150 -6 c0 -5 -5 -10 -11 -10 -5 0 -7 5 -4 10 3 6 8 10 11 10 2 0 4 -4
4 -10z m-200 -10 c0 -5 -5 -10 -11 -10 -5 0 -7 5 -4 10 3 6 8 10 11 10 2 0 4
-4 4 -10z m120 6 c0 -3 -4 -8 -10 -11 -5 -3 -10 -1 -10 4 0 6 5 11 10 11 6 0
10 -2 10 -4z m-1029 -16 c17 -10 19 -22 18 -148 0 -88 -3 -129 -9 -116 -14 35
-43 274 -33 274 2 0 13 -5 24 -10z m1064 0 c3 -5 -1 -10 -10 -10 -9 0 -13 5
-10 10 3 6 8 10 10 10 2 0 7 -4 10 -10z m-70 -10 c3 -5 1 -10 -4 -10 -6 0 -11
5 -11 10 0 6 2 10 4 10 3 0 8 -4 11 -10z m-19 -14 c3 -8 14 -12 27 -8 26 6 21
0 -12 -18 -15 -8 -21 -8 -17 -1 8 12 -3 14 -44 11 -24 -2 -25 -1 -5 14 25 19
44 20 51 2z m-2444 -333 c208 -125 378 -231 378 -234 0 -8 -704 -419 -718
-419 -5 0 -10 10 -10 23 0 44 -32 674 -38 765 -4 50 -2 92 2 92 5 0 179 -102
386 -227z m1948 92 l184 -104 43 25 43 25 0 -84 0 -83 96 -55 96 -54 -7 -165
c-4 -91 -8 -166 -10 -168 -2 -2 -68 34 -146 81 -79 46 -171 99 -205 117 l-60
34 -61 -37 c-33 -20 -66 -37 -72 -37 -7 0 -11 28 -11 83 l0 82 -57 33 c-94 52
-91 48 -60 72 l27 21 0 160 c0 87 4 159 8 159 5 0 91 -47 192 -105z m971 58
c38 -21 69 -40 69 -44 0 -6 -146 -99 -156 -99 -3 0 -4 41 -3 90 2 50 7 90 12
90 5 0 41 -17 78 -37z m-2321 -510 c0 -10 -932 -545 -938 -539 -2 3 11 14 30
26 87 56 885 518 896 519 6 1 12 -2 12 -6z m1548 -97 l63 -41 -2 -102 c-1 -57
-4 -105 -8 -107 -3 -2 -50 22 -104 55 -53 32 -97 53 -97 46 0 -6 -35 -33 -78
-59 -60 -36 -80 -44 -90 -35 -12 9 -10 13 7 21 12 5 21 13 21 18 0 4 7 8 15 8
8 0 15 6 16 13 0 6 2 22 3 35 2 12 -1 22 -6 22 -5 0 -6 5 -3 10 11 17 11 129
1 123 -5 -4 -6 -1 -2 6 4 6 12 9 17 6 5 -4 9 -2 9 2 0 5 18 19 40 33 22 14 40
28 40 33 0 9 63 -26 158 -87z m-1118 -731 c0 -13 -294 -197 -857 -537 -18 -11
-33 -25 -33 -31 0 -7 -5 -6 -12 2 -8 8 -9 15 -3 18 6 2 210 127 455 278 245
151 446 275 448 275 1 0 2 -2 2 -5z m70 -152 c-8 -3 -34 -19 -57 -35 -24 -16
-43 -25 -43 -21 0 12 82 63 100 62 13 -1 13 -1 0 -6z m-120 -73 c-24 -15 -37
-11 -16 5 11 8 22 12 25 9 3 -3 -1 -9 -9 -14z m-70 -40 c-19 -16 -43 -31 -53
-34 -24 -6 -19 -1 34 34 57 37 63 37 19 0z m-160 -95 c0 -2 -10 -9 -22 -15
-22 -11 -22 -10 -4 4 21 17 26 19 26 11z m-90 -59 c0 -2 -7 -7 -16 -10 -8 -3
-12 -2 -9 4 6 10 25 14 25 6z m455 -228 c3 -128 5 -298 3 -376 l-3 -144 -292
192 c-161 106 -293 195 -293 199 0 6 560 360 571 361 4 0 10 -105 14 -232z
m-510 196 c-28 -21 -55 -36 -55 -29 0 6 62 45 70 45 3 -1 -4 -8 -15 -16z m-65
-38 c0 -2 -7 -7 -16 -10 -8 -3 -12 -2 -9 4 6 10 25 14 25 6z m-40 -30 c0 -2
-7 -7 -16 -10 -8 -3 -12 -2 -9 4 6 10 25 14 25 6z m-76 -44 c-75 -54 -89 -56
-18 -2 22 16 43 30 48 30 5 0 -9 -13 -30 -28z m-124 -106 c304 -195 632 -416
617 -416 -12 0 -743 482 -762 503 -12 13 6 2 145 -87z m49 61 c-2 -1 -13 -9
-24 -17 -19 -14 -19 -14 -6 3 7 9 18 17 24 17 6 0 8 -1 6 -3z"/>
<path d="M2487 5807 c-4 -10 -7 -26 -7 -35 1 -15 2 -15 11 1 6 10 9 25 7 35
-3 16 -4 15 -11 -1z"/>
<path d="M3701 6496 c2 -2 51 -25 109 -51 164 -74 790 -366 945 -440 77 -37
273 -129 435 -205 162 -76 391 -184 509 -239 118 -56 219 -101 225 -100 10 0
-73 41 -254 126 -41 20 -172 82 -290 138 -176 84 -1078 509 -1534 724 -60 28
-118 51 -129 51 -11 0 -18 -2 -16 -4z"/>
<path d="M5910 5289 c0 -5 5 -7 10 -4 6 3 10 8 10 11 0 2 -4 4 -10 4 -5 0 -10
-5 -10 -11z"/>
<path d="M5496 5055 c-11 -8 -15 -15 -9 -15 19 0 43 12 43 21 0 13 -12 11 -34
-6z"/>
<path d="M5430 5010 c0 -5 5 -10 10 -10 6 0 10 5 10 10 0 6 -4 10 -10 10 -5 0
-10 -4 -10 -10z"/>
<path d="M4943 4730 c-13 -5 -23 -14 -23 -20 0 -8 28 5 59 27 9 6 -15 1 -36
-7z"/>
<path d="M6400 4354 c-15 -15 -215 -144 -224 -144 -5 0 -203 -129 -271 -177
-22 -15 -42 -28 -45 -28 -3 0 -32 -18 -64 -40 -32 -22 -66 -44 -75 -50 -9 -5
-31 -21 -50 -34 -18 -13 -55 -35 -82 -50 -46 -24 -270 -162 -386 -237 -28 -19
-54 -34 -56 -34 -4 0 -86 -51 -307 -191 -25 -16 -55 -37 -68 -47 -13 -9 -40
-26 -60 -37 -31 -17 -114 -69 -185 -118 -55 -36 -76 -55 -70 -60 3 -4 1 -8 -5
-8 -15 -2 -23 -4 -47 -14 -40 -16 -72 -55 -45 -55 6 0 20 -8 31 -19 20 -19 20
-19 -10 -29 -30 -11 -31 -10 -31 18 0 37 -18 48 -36 21 -8 -12 -24 -21 -34
-21 -22 0 -39 -22 -22 -28 7 -2 12 -11 12 -20 0 -10 -3 -13 -8 -7 -9 12 -62
16 -62 5 0 -5 10 -11 23 -13 19 -4 19 -4 -5 -6 -26 -1 -27 -4 -31 -58 -2 -44
-5 -53 -11 -35 -5 12 -15 22 -22 22 -9 0 -14 11 -14 27 0 21 -3 24 -12 15 -7
-7 -12 -38 -12 -70 0 -31 -1 -45 -4 -29 -4 31 -22 37 -22 8 0 -11 -4 -22 -8
-25 -5 -3 -7 -23 -5 -45 2 -23 0 -41 -5 -41 -4 0 -7 -12 -8 -27 0 -16 -4 -82
-9 -148 -4 -66 -9 -174 -11 -240 -1 -66 -5 -154 -7 -195 -2 -41 -8 -138 -12
-215 -5 -82 -13 -143 -19 -147 -8 -5 -7 -8 2 -8 7 0 12 -13 12 -30 0 -16 -3
-30 -7 -30 -8 0 -11 -70 -12 -268 -1 -46 -6 -93 -12 -105 -9 -16 -9 -22 0 -25
6 -2 11 -13 11 -23 0 -13 -4 -18 -12 -13 -8 5 -9 -5 -4 -36 4 -27 2 -47 -5
-56 -6 -8 -9 -21 -5 -29 3 -8 1 -27 -5 -42 -8 -22 -7 -30 7 -40 16 -12 12 -17
-8 -14 -5 0 -8 -6 -8 -15 0 -9 5 -12 11 -8 8 5 10 -3 5 -27 -16 -81 -17 -98
-6 -119 7 -12 8 -20 2 -16 -14 8 -21 -53 -12 -104 5 -25 4 -50 0 -56 -5 -5
-12 -84 -16 -175 -3 -90 -8 -222 -11 -293 l-5 -129 63 45 c35 24 118 83 184
129 257 183 370 263 655 464 162 114 313 221 335 237 45 32 85 61 330 235 94
66 177 129 187 139 11 13 18 47 23 109 3 50 9 103 12 119 5 29 5 30 -18 14
-13 -8 -35 -21 -48 -29 -14 -8 -34 -22 -45 -33 -12 -10 -39 -29 -61 -43 -22
-14 -63 -43 -91 -64 -28 -22 -56 -39 -62 -39 -5 0 -12 -3 -14 -8 -1 -4 -34
-30 -73 -57 -38 -27 -71 -53 -73 -57 -2 -4 -10 -8 -17 -8 -7 0 -15 -3 -17 -8
-1 -4 -26 -22 -53 -39 -28 -18 -59 -40 -71 -50 -25 -23 -53 -40 -81 -52 -11
-6 -24 -15 -28 -21 -4 -7 -30 -27 -59 -46 -59 -40 -144 -100 -166 -117 -8 -7
-36 -26 -62 -42 -27 -17 -48 -33 -48 -37 0 -5 -6 -8 -14 -8 -8 0 -16 -3 -18
-7 -4 -11 -94 -73 -105 -73 -5 0 -16 -9 -25 -20 -10 -11 -55 -44 -100 -74
-116 -77 -130 -87 -155 -110 -23 -19 -23 -19 -23 0 0 11 6 29 14 39 8 11 12
24 10 30 -5 12 46 45 70 45 9 0 16 6 17 13 0 15 59 63 59 48 0 -6 5 -11 10
-11 6 0 10 5 10 10 0 6 12 23 26 38 18 18 25 21 21 9 -6 -15 -4 -16 14 -7 11
6 17 15 14 20 -3 5 0 12 6 16 8 4 9 3 5 -4 -4 -7 -2 -12 3 -12 6 0 11 5 11 10
0 6 6 10 13 10 7 0 17 10 22 23 6 12 18 21 27 21 10 -1 15 2 12 7 -3 5 2 9 10
9 9 0 16 4 16 10 0 5 3 10 8 9 15 -2 52 14 52 22 0 5 6 9 13 9 18 0 49 35 40
44 -4 4 -1 4 8 1 8 -3 25 4 37 15 12 11 24 19 26 18 2 -2 8 0 12 4 4 5 2 8 -5
8 -7 0 -9 5 -6 10 4 6 11 7 17 4 12 -8 59 16 53 26 -3 4 2 13 10 20 12 10 15
10 15 -1 0 -8 9 -4 23 9 13 12 28 22 34 22 6 0 16 7 23 15 9 11 9 15 1 15 -7
0 -9 5 -5 11 5 8 9 8 14 -1 9 -15 70 26 66 44 -2 6 -1 8 1 4 8 -14 23 -9 23 7
0 9 6 12 15 8 10 -3 15 -1 13 7 -2 7 11 17 27 24 38 14 115 66 115 77 0 5 7 9
16 9 11 0 14 6 9 20 -3 11 -2 20 3 20 6 0 12 -5 14 -12 3 -7 15 -3 36 12 17
13 29 27 27 31 -3 4 8 10 23 14 16 3 46 21 67 40 21 19 43 35 51 35 7 0 21 10
31 23 10 13 24 22 32 19 10 -3 12 0 8 11 -3 9 1 18 9 21 9 3 12 1 9 -4 -3 -6
10 -1 29 11 20 12 33 25 30 31 -3 5 0 8 7 7 19 -3 79 33 79 48 0 9 -709 424
-1268 742 l-134 76 6 89 c3 49 6 122 6 163 0 66 2 73 20 73 11 0 129 -62 262
-138 134 -76 448 -255 698 -396 250 -142 484 -276 520 -297 35 -21 66 -37 68
-35 2 2 10 102 17 222 13 202 30 432 40 529 2 22 11 117 20 210 9 94 17 193
17 222 1 29 4 50 8 48 3 -2 6 22 6 53 1 31 4 82 8 112 4 30 9 102 12 159 2 57
7 108 10 113 3 4 7 45 10 91 3 45 6 102 7 127 3 57 5 59 71 105 59 41 81 40
66 -1 -6 -14 -8 -29 -5 -34 3 -4 0 -32 -5 -61 -6 -30 -11 -82 -11 -117 0 -34
-4 -60 -9 -57 -5 3 -8 -9 -8 -27 0 -18 -4 -76 -9 -128 -5 -52 -9 -111 -8 -130
0 -19 -3 -37 -7 -40 -4 -3 -10 -59 -13 -125 -3 -65 -8 -121 -10 -125 -2 -4 -7
-40 -10 -81 -3 -41 -8 -85 -10 -99 -7 -38 -24 -225 -30 -325 -5 -84 -13 -167
-21 -225 -2 -14 -6 -52 -9 -85 -3 -33 -9 -89 -15 -125 -6 -36 -11 -103 -13
-150 -2 -70 1 -85 13 -84 24 2 191 126 201 148 4 12 20 145 34 296 14 151 30
313 35 360 5 47 26 252 45 455 49 505 114 1172 119 1218 5 43 5 42 -14 21z
m-726 -781 c-7 -59 -64 -759 -64 -783 0 -11 -6 -20 -13 -20 -7 0 -157 79 -332
175 -176 96 -324 177 -330 179 -19 7 21 35 355 246 184 117 344 218 355 225
30 21 33 18 29 -22z m-452 -624 c172 -94 328 -180 347 -192 l33 -20 -7 -106
c-4 -58 -9 -108 -12 -111 -2 -2 -37 13 -76 35 -170 93 -783 437 -789 443 -6 6
168 122 184 122 4 0 148 -77 320 -171z m-812 107 c0 -2 -7 -7 -16 -10 -8 -3
-12 -2 -9 4 6 10 25 14 25 6z m-41 -105 c8 -5 9 -11 3 -15 -14 -8 -43 4 -36
15 7 11 15 11 33 0z m70 -32 c-16 -10 -23 -4 -14 10 3 6 11 8 17 5 6 -4 5 -9
-3 -15z m36 -19 c3 -5 2 -10 -4 -10 -5 0 -13 5 -16 10 -3 6 -2 10 4 10 5 0 13
-4 16 -10z m-155 -60 c0 -5 -4 -10 -10 -10 -5 0 -10 5 -10 10 0 6 5 10 10 10
6 0 10 -4 10 -10z m65 0 c3 -6 -1 -7 -9 -4 -18 7 -21 14 -7 14 6 0 13 -4 16
-10z m-278 -92 c-3 -8 -6 -5 -6 6 -1 11 2 17 5 13 3 -3 4 -12 1 -19z m-1 -66
c-11 -10 -15 4 -8 28 l7 25 3 -23 c2 -13 1 -26 -2 -30z m795 -684 c335 -194
609 -355 609 -358 -1 -20 -956 -690 -1202 -842 l-93 -57 -3 57 c-1 31 1 99 5
151 l8 93 449 309 c247 170 450 310 452 312 1 1 -192 116 -428 256 l-430 254
6 60 c3 33 6 73 6 88 0 16 3 29 6 29 4 0 281 -159 615 -352z m-286 -202 c176
-103 323 -190 327 -194 4 -4 -59 -53 -140 -109 -81 -56 -241 -167 -356 -247
-115 -80 -212 -146 -214 -146 -6 0 4 218 23 560 8 135 15 265 15 289 0 30 4
42 13 38 6 -2 156 -89 332 -191z m858 -331 c-3 -9 -8 -14 -10 -11 -3 3 -2 9 2
15 9 16 15 13 8 -4z"/>
<path d="M6005 4170 c-3 -5 1 -10 10 -10 9 0 13 5 10 10 -3 6 -8 10 -10 10 -2
0 -7 -4 -10 -10z"/>
<path d="M3406 3744 c-4 -10 -1 -14 6 -12 15 5 23 28 10 28 -5 0 -13 -7 -16
-16z"/>
<path d="M3440 3715 c0 -19 4 -35 9 -35 5 0 11 16 13 35 3 24 0 35 -9 35 -8 0
-13 -13 -13 -35z"/>
<path d="M3355 3710 c-3 -5 -1 -10 4 -10 6 0 11 5 11 10 0 6 -2 10 -4 10 -3 0
-8 -4 -11 -10z"/>
<path d="M3470 3710 c0 -5 7 -10 15 -10 8 0 15 5 15 10 0 6 -7 10 -15 10 -8 0
-15 -4 -15 -10z"/>
<path d="M3392 3675 c-25 -55 -5 -72 39 -35 l24 19 -35 -9 c-30 -8 -33 -7 -17
4 17 13 24 46 9 46 -5 0 -14 -11 -20 -25z"/>
<path d="M3470 3645 c-14 -8 -33 -18 -42 -21 -10 -3 -18 -10 -18 -15 0 -4 14
-3 30 2 17 6 30 15 30 20 0 5 7 9 15 9 8 0 15 5 15 10 0 13 0 13 -30 -5z"/>
<path d="M3381 3594 c0 -11 3 -14 6 -6 3 7 2 16 -1 19 -3 4 -6 -2 -5 -13z"/>
<path d="M4160 2923 c0 -10 4 -24 9 -32 6 -9 10 -4 13 18 3 21 0 31 -9 31 -7
0 -13 -8 -13 -17z"/>
<path d="M4090 2890 c-8 -5 -12 -12 -9 -15 4 -3 12 1 19 10 14 17 11 19 -10 5z"/>
<path d="M506 1888 c3 -5 10 -6 15 -3 13 9 11 12 -6 12 -8 0 -12 -4 -9 -9z"/>
</g>
</svg>
